This is a stereoscopic 3D rip of Sanctum 3D, for new 3D TVs or computers with Nvidia 3D Vision. Tested with Stereoscopic Player. Enjoy!

Title: Sanctum (2011)
Rated: R
Runtime: 108 Minutes
Genre: Action | Adventure | Drama

Description:
The 3-D action-thriller Sanctum follows a team of underwater cave divers on a treacherous expedition to the largest, most beautiful and least accessible cave system on Earth. When a tropical storm forces them deep into the caverns, they must fight raging water, deadly terrain and creeping panic as they search for an unknown escape route to the sea. Master diver Frank McGuire has explored the South Pacific's Esa-ala Caves for months. But when his exit is cut off in a flash flood, Frank's team-including 17-year-old son Josh and financier Carl Hurley are forced to radically alter plans. With dwindling supplies, the crew must navigate an underwater labyrinth to make it out. Soon, they are confronted with the unavoidable question: Can they survive, or will they be trapped forever?
-From IMDB Page: http://www.imdb.com/title/tt0881320/

General
Unique ID : 246723181616776108694796546785212767715 (0xB99D28063A3CC22E994F71B1F02E1DE3)
Complete name : [filepath]/Sanctum 3D.mkv
Format : Matroska
File size : 8.49 GiB
Duration : 1h 48mn
Overall bit rate : 11.2 Mbps
Movie name : Sanctum
Encoded date : UTC 2011-04-17 16:35:22
Writing application : mkvmerge v4.6.0 ('Still Crazy After All These Years') gemaakt op Mar 10 2011 02:50:32
Writing library : libebml v1.2.0 + libmatroska v1.1.0

Video
ID : 1
Format : AVC
Format/Info : Advanced Video Codec
Format profile : High@L4.0
Format settings, CABAC : Yes
Format settings, ReFrames : 4 frames
Format settings, GOP : M=2, N=5
Codec ID : V_MPEG4/ISO/AVC
Duration : 1h 48mn
Bit rate : 9 443 Kbps
Nominal bit rate : 10 000 Kbps
Width : 1 920 pixels
Height : 1 080 pixels
Display aspect ratio : 16:9
Frame rate mode : Variable
Frame rate : 23.976 fps
Color space : YUV
Chroma subsampling : 4:2:0
Bit depth : 8 bits
Scan type : Progressive
Bits/(Pixel*Frame) : 0.190
Stream size : 7.18 GiB (84%)
Writing library : x264 core 107 r1745 4785e8e
Language : English

Audio
ID : 2
Format : DTS
Format/Info : Digital Theater Systems
Codec ID : A_DTS
Duration : 1h 48mn
Bit rate mode : Constant
Bit rate : 1 510 Kbps
Channel(s) : 6 channels
Channel positions : Front: L C R, Side: L R, LFE
Sampling rate : 48.0 KHz
Bit depth : 24 bits
Compression mode : Lossy
Stream size : 1.15 GiB (14%)
Language : English